<svg width="21" height="26" viewBox="0 0 21 26" fill="none" xmlns="http://www.w3.org/2000/svg">
<path d="M16.2906 25.125H4.71689C4.03944 25.1233 3.39021 24.8535 2.91118 24.3745C2.43214 23.8954 2.16229 23.2462 2.16064 22.5687V4.54124C2.16064 4.2926 2.25942 4.05415 2.43523 3.87833C2.61105 3.70252 2.8495 3.60374 3.09814 3.60374H17.9106C18.1593 3.60374 18.3977 3.70252 18.5736 3.87833C18.7494 4.05415 18.8481 4.2926 18.8481 4.54124V22.5687C18.8465 23.2464 18.5765 23.8958 18.0972 24.3749C17.6179 24.854 16.9683 25.1237 16.2906 25.125V25.125ZM4.03564 5.47874V22.5687C4.03581 22.7494 4.10764 22.9226 4.23536 23.0503C4.36308 23.178 4.53627 23.2498 4.71689 23.25H16.2906C16.4714 23.25 16.6447 23.1782 16.7726 23.0505C16.9004 22.9228 16.9724 22.7495 16.9725 22.5687V5.47874H4.03564Z" fill="#9A4AB7"/>
<path d="M14.4414 5.47874H6.56641C6.31777 5.47874 6.07931 5.37997 5.90349 5.20416C5.72768 5.02834 5.62891 4.78988 5.62891 4.54124V2.83749C5.6299 2.09625 5.92484 1.38565 6.44904 0.861565C6.97324 0.337481 7.68391 0.0426969 8.42516 0.0418701H12.5827C13.3239 0.0426969 14.0346 0.337481 14.5588 0.861565C15.083 1.38565 15.3779 2.09625 15.3789 2.83749V4.54124C15.3789 4.78988 15.2801 5.02834 15.1043 5.20416C14.9285 5.37997 14.69 5.47874 14.4414 5.47874V5.47874ZM7.50391 3.60374H13.5039V2.83749C13.5036 2.59332 13.4064 2.35926 13.2337 2.18666C13.061 2.01406 12.8268 1.91703 12.5827 1.91687H8.42516C8.18109 1.9172 7.94712 2.0143 7.77454 2.18688C7.60196 2.35946 7.50486 2.59343 7.50453 2.83749L7.50391 3.60374Z" fill="#9A4AB7"/>
<path d="M10.5039 21.5362C10.2553 21.5362 10.0168 21.4375 9.84099 21.2617C9.66518 21.0858 9.56641 20.8474 9.56641 20.5987V8.13062C9.56641 7.88197 9.66518 7.64352 9.84099 7.4677C10.0168 7.29189 10.2553 7.19312 10.5039 7.19312C10.7525 7.19312 10.991 7.29189 11.1668 7.4677C11.3426 7.64352 11.4414 7.88197 11.4414 8.13062V20.5987C11.4414 20.8474 11.3426 21.0858 11.1668 21.2617C10.991 21.4375 10.7525 21.5362 10.5039 21.5362V21.5362Z" fill="#9A4AB7"/>
<path d="M7.11865 21.5362C6.87001 21.5362 6.63156 21.4375 6.45574 21.2617C6.27992 21.0858 6.18115 20.8474 6.18115 20.5987V8.13062C6.18115 7.88197 6.27992 7.64352 6.45574 7.4677C6.63156 7.29189 6.87001 7.19312 7.11865 7.19312C7.36729 7.19312 7.60575 7.29189 7.78157 7.4677C7.95738 7.64352 8.05615 7.88197 8.05615 8.13062V20.5987C8.05615 20.8474 7.95738 21.0858 7.78157 21.2617C7.60575 21.4375 7.36729 21.5362 7.11865 21.5362V21.5362Z" fill="#9A4AB7"/>
<path d="M13.8892 21.5362C13.6405 21.5362 13.4021 21.4375 13.2262 21.2617C13.0504 21.0858 12.9517 20.8474 12.9517 20.5987V8.13062C12.9517 7.88197 13.0504 7.64352 13.2262 7.4677C13.4021 7.29189 13.6405 7.19312 13.8892 7.19312C14.1378 7.19312 14.3763 7.29189 14.5521 7.4677C14.7279 7.64352 14.8267 7.88197 14.8267 8.13062V20.5987C14.8267 20.8474 14.7279 21.0858 14.5521 21.2617C14.3763 21.4375 14.1378 21.5362 13.8892 21.5362V21.5362Z" fill="#9A4AB7"/>
<path d="M19.3631 5.47874H1.64502C1.39638 5.47874 1.15792 5.37997 0.982107 5.20416C0.806292 5.02834 0.70752 4.78988 0.70752 4.54124C0.70752 4.2926 0.806292 4.05415 0.982107 3.87833C1.15792 3.70252 1.39638 3.60374 1.64502 3.60374H19.3631C19.6118 3.60374 19.8502 3.70252 20.0261 3.87833C20.2019 4.05415 20.3006 4.2926 20.3006 4.54124C20.3006 4.78988 20.2019 5.02834 20.0261 5.20416C19.8502 5.37997 19.6118 5.47874 19.3631 5.47874V5.47874Z" fill="#9A4AB7"/>
</svg>
